Coordinates
version=1
nRows=11
nColumns=63
inDegrees=yes

Units are S.I. units (second, meters, Newtons, ...)
If the header above contains a line with 'inDegrees', this indicates whether rotational values are in degrees (yes) or radians (no).

endheader
time	pelvis_tilt	pelvis_list	pelvis_rotation	pelvis_tx	pelvis_ty	pelvis_tz	hip_flexion_r	hip_adduction_r	hip_rotation_r	knee_angle_r	knee_angle_r_beta	ankle_angle_r	subtalar_angle_r	mtp_angle_r	hip_flexion_l	hip_adduction_l	hip_rotation_l	knee_angle_l	knee_angle_l_beta	ankle_angle_l	subtalar_angle_l	mtp_angle_l	L5_S1_Flex_Ext	L5_S1_Lat_Bending	L5_S1_axial_rotation	L4_L5_Flex_Ext	L4_L5_Lat_Bending	L4_L5_axial_rotation	L3_L4_Flex_Ext	L3_L4_Lat_Bending	L3_L4_axial_rotation	L2_L3_Flex_Ext	L2_L3_Lat_Bending	L2_L3_axial_rotation	L1_L2_Flex_Ext	L1_L2_Lat_Bending	L1_L2_axial_rotation	L1_T12_Flex_Ext	L1_T12_Lat_Bending	L1_T12_axial_rotation	Abs_r3	Abs_r2	Abs_r1	Abs_t1	Abs_t2	neck_flexion	neck_bending	neck_rotation	arm_flex_r	arm_add_r	arm_rot_r	elbow_flex_r	pro_sup_r	wrist_flex_r	wrist_dev_r	arm_flex_l	arm_add_l	arm_rot_l	elbow_flex_l	pro_sup_l	wrist_flex_l	wrist_dev_l
      2.86666667	      0.39847397	     -3.54868226	     87.35748673	      0.34524583	      1.05698625	      0.47804530	     -4.64623611	      0.35709096	     14.63692841	      2.45200225	      0.04279551	     16.23493414	    -12.75128599	      0.00000000	     -3.20157214	     -3.01187055	     10.50673715	      0.73552660	      0.01283736	     27.62079126	     -4.38771976	      0.00000000	     -0.25177804	      0.26815364	     -0.73658290	     -0.46757700	      0.35664433	     -0.78261933	     -0.41364614	      0.65198875	     -0.78261933	     -0.28775712	      0.65198875	     -0.64451003	     -0.23380109	      0.54681889	     -0.59847360	     -0.14386597	      0.41536998	     -0.55243717	     -1.79842537	      3.03340755	     -4.09665309	      0.00000000	      0.00000000	      4.49627579	      0.24812035	     16.53162293	     94.75023764	    -99.37838415	    109.44965113	     11.51064379	      6.13121871	     -6.59013910	     16.17795255	    -70.59158424	    -85.07983620	    -14.25526633	      7.22574112	     34.67967772	    -10.54622680	      1.95519080
      2.88333333	      0.35071344	     -3.68408448	     87.06176952	      0.34564750	      1.05673273	      0.47813402	     -4.51707337	      0.28936786	     15.91311159	      2.24209820	      0.03913200	     16.00693624	    -14.24618306	      0.00000000	     -3.08413958	     -2.95455681	     10.03137391	      0.73475158	      0.01282383	     27.67226589	     -4.14159839	      0.00000000	     -0.23840140	      0.26502357	     -0.65086680	     -0.44273525	      0.35248134	     -0.69154598	     -0.39166967	      0.64437830	     -0.69154598	     -0.27246897	      0.64437830	     -0.56950845	     -0.22137954	      0.54043606	     -0.52882928	     -0.13622256	      0.41052150	     -0.48815010	     -1.70287739	      2.99799959	     -3.61992590	      0.00000000	      0.00000000	      4.60723868	      0.34017475	     16.71751899	     90.50042117	    -99.37085679	    112.78384338	     11.09984981	      7.66478837	     -5.47628294	     15.29832639	    -69.99517409	    -85.63849584	     -9.36333747	      7.14284844	     30.51872547	    -10.23797393	      1.78053340
      2.90000000	      0.50555909	     -3.82868154	     86.92974149	      0.34511581	      1.05645909	      0.47837372	     -4.31100307	      0.38950347	     15.62887751	      2.15291272	      0.03757542	     16.47278689	    -13.84252307	      0.00000000	     -2.95482269	     -3.06953507	     10.87151297	      0.70570663	      0.01231690	     27.43840564	     -5.56352151	      0.00000000	     -0.23387287	      0.29706963	     -0.60465256	     -0.43432530	      0.39510261	     -0.64244335	     -0.38422973	      0.72229509	     -0.64244335	     -0.26729330	      0.72229509	     -0.52907099	     -0.21717435	      0.60578439	     -0.49128021	     -0.13363496	      0.46016085	     -0.45348942	     -1.67053051	      3.36051105	     -3.36289615	      0.00000000	      0.00000000	      4.87902523	      0.31605661	     17.08598863	     84.52262625	    -99.35739924	    114.13619182	     11.09142176	      7.59251821	     -4.85332908	     14.33443063	    -66.61206539	    -85.89745689	     -1.38715794	      6.98765314	     26.26499032	    -10.21946961	      1.58115219
      2.91666667	      0.55331382	     -3.96223605	     86.49246066	      0.34558322	      1.05621251	      0.47886135	     -4.03264009	      0.40455337	     15.73816195	      2.16326031	      0.03775602	     17.00033399	    -13.71630276	      0.00000000	     -2.86119086	     -3.09897147	     10.54827727	      0.69498382	      0.01212976	     27.42330838	     -5.77452863	      0.00000000	     -0.22995449	      0.29650087	     -0.50599770	     -0.42704849	      0.39434616	     -0.53762256	     -0.37779224	      0.72091222	     -0.53762256	     -0.26281499	      0.72091222	     -0.44274799	     -0.21353574	      0.60462457	     -0.41112313	     -0.13139600	      0.45927985	     -0.37949828	     -1.64254195	      3.35407714	     -2.81420742	      0.00000000	      0.00000000	      5.10938924	      0.66205073	     17.00484508	     83.08922051	    -99.25714010	    115.68230322	     10.93230146	      9.15216462	     -4.62980231	     13.37783072	    -66.87407110	    -85.99975058	     -0.90306122	      6.84859220	     26.69878192	    -10.25753958	      1.57960316
      2.93333333	      0.58575721	     -4.08880017	     86.15715351	      0.34576761	      1.05592226	      0.47913846	     -3.77810532	      0.40400472	     15.49325460	      2.21225158	      0.03861107	     17.53898724	    -13.47569505	      0.00000000	     -2.77052967	     -3.10999617	     10.36285772	      0.71246454	      0.01243485	     27.41590080	     -5.93283290	      0.00000000	     -0.21837332	      0.29231156	     -0.42413979	     -0.40554110	      0.38877438	     -0.45064852	     -0.35876553	      0.71072633	     -0.45064852	     -0.24957887	      0.71072633	     -0.37112231	     -0.20278147	      0.59608174	     -0.34461358	     -0.12477852	      0.45279061	     -0.31810484	     -1.55981882	      3.30668686	     -2.35893825	      0.00000000	      0.00000000	      5.24219698	      1.06565623	     16.54108559	     81.02977914	    -99.07751604	    117.30396097	     10.74715928	     10.64196427	     -4.03402084	     12.42235986	    -67.14051004	    -86.09190863	     -0.57803369	      6.64268825	     27.24102234	    -10.35653941	      1.73200001
      2.95000000	      0.62719152	     -4.19413377	     85.85162331	      0.34588751	      1.05572678	      0.47979392	     -3.50569552	      0.41849550	     15.09606657	      2.35308839	      0.04106914	     17.88639256	    -13.34167082	      0.00000000	     -2.68246302	     -3.13661628	     10.22576176	      0.72694132	      0.01268752	     27.38598944	     -6.06387939	      0.00000000	     -0.22070836	      0.28723078	     -0.36760490	     -0.40987750	      0.38201693	     -0.39058021	     -0.36260176	      0.69837291	     -0.39058021	     -0.25224758	      0.69837291	     -0.32165429	     -0.20494978	      0.58572100	     -0.29867898	     -0.12611276	      0.44492047	     -0.27570368	     -1.57649774	      3.24921200	     -2.04450819	      0.00000000	      0.00000000	      5.45238854	      1.48896071	     16.00766428	     79.84380059	    -98.72895423	    117.91818980	     10.67513780	     11.24841893	     -3.74586389	     11.68197527	    -67.33469971	    -86.08216549	     -0.45951568	      6.36643943	     27.64218480	    -10.49260743	      1.84572779
      2.96666667	      0.78765109	     -4.39172696	     85.36406751	      0.34571581	      1.05524976	      0.48013282	     -2.99026595	      0.49474379	     12.10641089	      2.86916690	      0.05007641	     19.45281619	     -9.35276889	      0.00000000	     -2.57969193	     -3.25367257	     10.55916680	      0.70737289	      0.01234599	     27.39235120	     -6.96013810	      0.00000000	     -0.20224503	      0.31256730	     -0.27637638	     -0.37558925	      0.41571451	     -0.29364991	     -0.33226837	      0.75997614	     -0.29364991	     -0.23114585	      0.75997614	     -0.24182934	     -0.18780474	      0.63738725	     -0.22455581	     -0.11556281	      0.48416675	     -0.20728229	     -1.44461605	      3.53582386	     -1.53712253	      0.00000000	      0.00000000	      5.61685859	      1.41535415	     15.84387189	     71.35743973	    -98.43286292	    118.04146525	     11.16958008	      7.88107559	     -3.08601124	     10.54522937	    -66.10403792	    -85.94395098	     -3.58409448	      6.58178402	     32.51735755	    -10.84403646	      1.97645962
      2.98333333	      0.73215135	     -4.52865231	     84.92198506	      0.34617370	      1.05492898	      0.48060365	     -2.61160714	      0.43424823	     11.72198011	      3.27765401	      0.05720585	     19.74513135	     -9.45477678	      0.00000000	     -2.49437130	     -3.18579028	     10.47386418	      0.71195960	      0.01242604	     27.38021591	     -7.15569572	      0.00000000	     -0.19123178	      0.29385508	     -0.17668777	     -0.35513653	      0.39082726	     -0.18773076	     -0.31417468	      0.71447925	     -0.18773076	     -0.21855880	      0.71447925	     -0.15460180	     -0.17757783	      0.59922928	     -0.14355882	     -0.10926984	      0.45518152	     -0.13251583	     -1.36594945	      3.32414746	     -0.98268439	      0.00000000	      0.00000000	      5.80012271	      1.83177208	     15.14491502	     70.27406640	    -98.18021522	    118.62669971	     11.12494340	      8.47064685	     -2.59571534	      9.60510709	    -65.83828062	    -86.27401038	     -4.00573106	      6.45313940	     32.83424528	    -10.97935181	      1.98908703
      3.00000000	      0.71125212	     -4.59814871	     84.62511506	      0.34651178	      1.05480888	      0.48112322	     -2.30357138	      0.42423968	     11.19224333	      3.73626033	      0.06521004	     19.79564718	     -9.58650647	      0.00000000	     -2.44803058	     -3.16028476	     10.40791527	      0.72217792	      0.01260438	     27.29755824	     -7.27688855	      0.00000000	     -0.19355953	      0.27916382	     -0.12474139	     -0.35945940	      0.37128789	     -0.13253773	     -0.31799895	      0.67875892	     -0.13253773	     -0.22121918	      0.67875892	     -0.10914872	     -0.17973938	      0.56927087	     -0.10135238	     -0.11059991	      0.43242476	     -0.09355604	     -1.38257635	      3.15795702	     -0.69377419	      0.00000000	      0.00000000	      5.96281890	      2.25484192	     14.61708976	     69.70198888	    -97.82806110	    118.74887385	     11.08035847	      8.70888141	     -2.27179472	      8.87698442	    -65.55378051	    -86.51189632	     -4.39327889	      6.30116384	     32.83362649	    -11.09282985	      1.95647976
      3.01666667	      0.74136223	     -4.73644529	     84.07245284	      0.34682090	      1.05450786	      0.48191104	     -1.59754481	      0.33830928	      7.59968763	      4.80183584	      0.08380785	     21.35895870	     -4.58525863	      0.00000000	     -2.35944569	     -3.17126903	     10.77658647	      0.69313968	      0.01209757	     27.16342891	     -8.30093515	      0.00000000	     -0.18769130	      0.28138713	     -0.02424392	     -0.34856151	      0.37424488	     -0.02575916	     -0.30835804	      0.68416466	     -0.02575916	     -0.21451239	      0.68416466	     -0.02121343	     -0.17429014	      0.57380463	     -0.01969818	     -0.10724681	      0.43586866	     -0.01818294	     -1.34066019	      3.18310746	     -0.13483739	      0.00000000	      0.00000000	      6.13533344	      2.33917205	     14.32372644	     65.84840844	    -97.66217546	    118.56044302	     11.20255816	      7.55184361	     -1.75684414	      7.84048558	    -61.72717704	    -86.20783642	    -13.87045288	      6.54222198	     45.22978548	    -11.60016451	      1.86578504
      3.03333333	      0.71434885	     -4.84898200	     83.72134155	      0.34717025	      1.05434199	      0.48246004	     -1.07523904	      0.25088430	      5.83637855	      5.56165813	      0.09706925	     21.99646695	     -2.35394893	      0.00000000	     -2.24239889	     -3.14282240	     10.60091089	      0.69353693	      0.01210450	     27.19547251	     -8.43025970	      0.00000000	     -0.18197992	      0.27093779	      0.04271031	     -0.33795491	      0.36034726	      0.04537970	     -0.29897481	      0.65875815	      0.04537970	     -0.20798485	      0.65875815	      0.03737152	     -0.16898655	      0.55249635	      0.03470213	     -0.10398333	      0.41968264	      0.03203273	     -1.29986437	      3.06490249	      0.23754193	      0.00000000	      0.00000000	      6.29474787	      2.56370915	     13.91049827	     65.55813809	    -97.55972643	    119.52775517	     11.12905443	      7.53543006	     -1.42334263	      6.98043428	    -61.92832990	    -86.40390045	    -14.55381548	      6.56464560	     45.08884875	    -11.61754221	      1.81344741
